<svg width="21" height="24" viewBox="0 0 21 24" fill="none" xmlns="http://www.w3.org/2000/svg">
<path d="M13.1358 19.2024C13.0224 19.8806 12.7194 20.4903 12.2781 20.9282C11.8368 21.3662 11.2844 21.6054 10.7145 21.6054C10.1445 21.6054 9.59211 21.3662 9.15083 20.9282C8.70954 20.4903 8.40652 19.8806 8.2931 19.2024H13.1358ZM10.7125 2.39999C13.8247 2.39999 16.3893 5.20199 16.6265 8.82599L16.6394 9.09359L16.6443 9.36239L16.6433 13.6896L17.5862 16.794L17.6109 16.896L17.6267 16.9992L17.6316 17.106C17.6316 17.484 17.4379 17.814 17.1157 17.9544L17.0031 17.994L16.8904 18.006H4.53852C4.45112 18.0057 4.36447 17.9866 4.28255 17.9496C3.9989 17.8236 3.81211 17.5032 3.80618 17.0904L3.81014 16.95L3.84374 16.794L4.78263 13.6932L4.78461 9.35159L4.78856 9.08159C4.91012 5.34119 7.52321 2.39999 10.7125 2.39999Z" fill="black"/>
</svg>
