<svg width="43" height="43" viewBox="0 0 43 43" fill="none" xmlns="http://www.w3.org/2000/svg">
<path d="M26.7675 34.4043C26.5208 35.6194 25.8616 36.7118 24.9016 37.4964C23.9416 38.2811 22.7399 38.7097 21.5 38.7097C20.2601 38.7097 19.0584 38.2811 18.0984 37.4964C17.1384 36.7118 16.4792 35.6194 16.2325 34.4043H26.7675ZM21.4957 4.3C28.266 4.3 33.8453 9.32025 34.3613 15.8133L34.3892 16.2927L34.4 16.7743L34.3978 24.5272L36.4489 30.0893L36.5027 30.272L36.5371 30.4569L36.5478 30.6483C36.5478 31.3255 36.1264 31.9168 35.4255 32.1683L35.1804 32.2393L34.9353 32.2608H8.06465C7.87452 32.2602 7.686 32.226 7.5078 32.1597C6.89075 31.934 6.4844 31.3599 6.4715 30.6203L6.4801 30.3688L6.5532 30.0893L8.5957 24.5337L8.6 16.755L8.6086 16.2712C8.87305 9.56965 14.5576 4.3 21.4957 4.3Z" fill="black"/>
</svg>
