<svg width="18" height="18" viewBox="0 0 18 18" fill="none" xmlns="http://www.w3.org/2000/svg">
<path d="M1 16.4664V2.78906C1 2.31457 1.18776 1.85952 1.52198 1.524C1.8562 1.18849 2.3095 1 2.78216 1H15.2573C15.7299 1 16.1832 1.18849 16.5174 1.524C16.8517 1.85952 17.0394 2.31457 17.0394 2.78906V11.7344C17.0394 12.2089 16.8517 12.6639 16.5174 12.9994C16.1832 13.3349 15.7299 13.5234 15.2573 13.5234H5.42064C5.15353 13.5235 4.88984 13.5838 4.64907 13.6999C4.4083 13.816 4.19662 13.985 4.02967 14.1943L1.95256 16.801C1.88344 16.888 1.7891 16.9512 1.6826 16.982C1.5761 17.0128 1.4627 17.0096 1.35809 16.9729C1.25348 16.9361 1.16283 16.8676 1.09867 16.7769C1.03452 16.6862 1.00004 16.5777 1 16.4664Z" stroke="black" stroke-width="1.5"/>
</svg>
