<svg width="72" height="72" viewBox="0 0 72 72" fill="none" xmlns="http://www.w3.org/2000/svg">
<path d="M44.33 44.71L32.52 56.52C27.99 61.06 20.67 61.22 15.94 57.01C24.9 57.09 24.34 57.66 40.81 41.19L44.33 44.71Z" fill="#D22F27"/>
<path d="M40.81 41.19C24.34 57.66 24.9 57.09 15.94 57.01C14.6634 55.8758 13.6422 54.4834 12.944 52.925C12.2458 51.3666 11.8866 49.6777 11.89 47.97C11.89 44.87 13.07 41.77 15.42 39.42L27.23 27.61L40.81 41.19Z" fill="#EA5A47"/>
<path d="M56.85 15.1C55.6369 13.8804 54.1937 12.9138 52.6041 12.2563C51.0145 11.5988 49.3102 11.2636 47.59 11.27C44.08 11.27 40.79 12.63 38.33 15.1L25.81 27.61L44.33 46.13L56.84 33.61C59.31 31.15 60.67 27.86 60.67 24.35C60.67 20.85 59.31 17.56 56.85 15.1ZM56.14 32.9L44.33 44.71L40.81 41.19L42.12 39.88C57.84 24.16 50.89 14.83 48.33 12.29C51.18 12.47 53.98 13.64 56.14 15.8C57.2621 16.9227 58.1516 18.2559 58.7573 19.7231C59.3631 21.1903 59.6732 22.7627 59.67 24.35C59.67 27.45 58.49 30.55 56.14 32.9Z" fill="#92D3F5"/>
<path d="M57.55 14.39C54.9 11.73 51.36 10.27 47.59 10.27C43.81 10.27 40.27 11.73 37.62 14.39L24.4 27.61L25.81 29.03L42.91 46.13L44.33 47.54L57.55 34.32C60.21 31.66 61.67 28.12 61.67 24.35C61.67 20.58 60.21 17.04 57.55 14.39ZM44.33 44.71L40.81 41.19L27.23 27.61L39.04 15.8C40.1627 14.6779 41.4959 13.7884 42.9631 13.1827C44.4303 12.5769 46.0027 12.2668 47.59 12.27C47.84 12.27 48.08 12.28 48.33 12.29C51.18 12.47 53.98 13.64 56.14 15.8C57.2621 16.9227 58.1516 18.2559 58.7573 19.7231C59.3631 21.1903 59.6732 22.7627 59.67 24.35C59.67 27.45 58.49 30.55 56.14 32.9L44.33 44.71Z" fill="#92D3F5"/>
<path d="M59.67 24.35C59.67 27.45 58.49 30.55 56.14 32.9L44.33 44.71L40.81 41.19L42.12 39.88C57.84 24.16 50.89 14.83 48.33 12.29C51.18 12.47 53.98 13.64 56.14 15.8C57.2621 16.9227 58.1516 18.2559 58.7573 19.7231C59.3631 21.1903 59.6732 22.7627 59.67 24.35Z" fill="#61B2E4"/>
<path d="M44.017 37.92L48.123 42.027L43.482 46.668L39.375 42.562L44.017 37.92Z" fill="#61B2E4"/>
<path d="M47.588 12.274C50.688 12.274 53.788 13.45 56.14 15.802C60.843 20.505 60.843 28.202 56.14 32.906L32.52 56.526C31.3969 57.6479 30.0633 58.5371 28.5957 59.1423C27.1281 59.7476 25.5555 60.0571 23.968 60.053C20.868 60.053 17.768 58.877 15.416 56.525C10.713 51.822 10.713 44.125 15.416 39.421L39.036 15.801C40.1591 14.6791 41.4927 13.7899 42.9603 13.1847C44.4279 12.5794 46.0005 12.2699 47.588 12.274ZM47.588 10.274C43.814 10.274 40.274 11.735 37.622 14.388L14.002 38.008C8.507 43.502 8.507 52.444 14.002 57.939C16.655 60.592 20.194 62.053 23.968 62.053C27.742 62.053 31.282 60.592 33.934 57.939L57.554 34.319C63.049 28.825 63.049 19.883 57.554 14.388C54.901 11.735 51.362 10.274 47.588 10.274Z" fill="black"/>
<path d="M28.563 30.406L41.422 43.266" stroke="black" stroke-width="2" stroke-miterlimit="10" stroke-linecap="round"/>
</svg>
