<svg width="40" height="41" viewBox="0 0 40 41" fill="none" xmlns="http://www.w3.org/2000/svg">
<path d="M33.8172 6.34219C32.2563 4.74247 30.1393 3.84378 27.932 3.84378C25.7247 3.84378 23.6078 4.74247 22.0469 6.34219L6.1875 22.5965C4.65951 24.2029 3.81055 26.3618 3.82453 28.6054C3.8385 30.8489 4.71429 32.9965 6.26217 34.5829C7.81004 36.1692 9.90536 37.0666 12.0942 37.0807C14.283 37.0947 16.3891 36.2242 17.9563 34.6578L33.8172 18.4036C35.375 16.8027 36.2499 14.6339 36.2499 12.3729C36.2499 10.1118 35.375 7.94304 33.8172 6.34219ZM32.0484 16.5922L24.1188 24.7185L15.8859 16.2815L23.8156 8.15356C24.9117 7.05604 26.3857 6.44569 27.9179 6.45486C29.4502 6.46404 30.9171 7.09201 32.0006 8.20258C33.0841 9.31315 33.6968 10.8168 33.7057 12.3873C33.7147 13.9579 33.1192 15.4687 32.0484 16.5922ZM29.6375 13.1873C29.7537 13.3063 29.8459 13.4476 29.9088 13.6031C29.9717 13.7587 30.0041 13.9254 30.0041 14.0938C30.0041 14.2621 29.9717 14.4289 29.9088 14.5844C29.8459 14.7399 29.7537 14.8812 29.6375 15.0002L25.8875 18.844C25.7714 18.9629 25.6335 19.0573 25.4818 19.1216C25.3301 19.1859 25.1675 19.219 25.0034 19.2189C24.8392 19.2188 24.6766 19.1856 24.525 19.1211C24.3733 19.0567 24.2356 18.9622 24.1195 18.8432C24.0035 18.7241 23.9115 18.5828 23.8487 18.4274C23.786 18.2719 23.7537 18.1052 23.7538 17.9369C23.7538 17.7687 23.7862 17.602 23.8491 17.4466C23.912 17.2912 24.0042 17.15 24.1203 17.031L27.8703 13.1873C28.1047 12.9472 28.4225 12.8123 28.7539 12.8123C29.0853 12.8123 29.4031 12.9472 29.6375 13.1873Z" fill="black"/>
</svg>
