<svg width="15" height="24" viewBox="0 0 15 24" fill="none" xmlns="http://www.w3.org/2000/svg">
<g clip-path="url(#clip0_3_23)">
<path d="M13.1126 2.85201H10.9902V4.07301H13.1183C13.6578 4.07301 14.0951 4.60401 14.0951 5.25901V21.6C14.0951 22.256 13.657 22.787 13.1175 22.787H2.11022C1.98184 22.787 1.85472 22.7563 1.73611 22.6967C1.6175 22.637 1.50973 22.5496 1.41895 22.4393C1.32817 22.3291 1.25616 22.1983 1.20703 22.0543C1.15791 21.9102 1.13262 21.7559 1.13262 21.6V5.25901C1.13262 4.60301 1.57077 4.07201 2.11022 4.07201H4.23838V2.85201H2.11599C1.58942 2.85228 1.08448 3.10638 0.712142 3.55847C0.339803 4.01056 0.130528 4.62366 0.13031 5.26301V21.589C0.130747 22.2282 0.340117 22.841 0.712433 23.2929C1.08475 23.7448 1.58956 23.9987 2.11599 23.999H13.1117C13.6383 23.9987 14.1432 23.7446 14.5156 23.2926C14.8879 22.8405 15.0972 22.2274 15.0974 21.588V5.26201C15.0972 4.62266 14.8879 4.00956 14.5156 3.55747C14.1432 3.10538 13.6383 2.85128 13.1117 2.85101L13.1126 2.85201Z" fill="black"/>
<g filter="url(#filter0_d_3_23)">
<rect x="-903.867" y="-35" width="1440" height="99" fill="white"/>
</g>
<path d="M10.5143 2.225H9.42798C9.42798 1.63489 9.23491 1.06896 8.89125 0.651687C8.5476 0.234419 8.0815 0 7.59549 0C7.10948 0 6.64338 0.234419 6.29972 0.651687C5.95607 1.06896 5.763 1.63489 5.763 2.225H4.6841V5.282H10.5094V2.225H10.5143ZM8.65463 2.225H6.538V2.193C6.538 1.85193 6.64959 1.52483 6.84821 1.28366C7.04684 1.04249 7.31624 0.907 7.59714 0.907C7.87804 0.907 8.14743 1.04249 8.34606 1.28366C8.54469 1.52483 8.65627 1.85193 8.65627 2.193V2.227V2.225H8.65463ZM5.03083 8.512H12.8203V9.682H5.03083V8.512ZM5.03083 13.41H12.8203V14.58H5.03083V13.41ZM5.03083 18.25H12.8203V19.426H5.03083V18.25ZM2.29733 7.757H4.50455V10.437H2.29733V7.757ZM2.29733 12.655H4.50455V15.335H2.29733V12.655ZM2.29733 17.497H4.50455V20.177H2.29733V17.497Z" fill="black"/>
</g>
<defs>
<filter id="filter0_d_3_23" x="-907.867" y="-35" width="1448" height="107" filterUnits="userSpaceOnUse" color-interpolation-filters="sRGB">
<feFlood flood-opacity="0" result="BackgroundImageFix"/>
<feColorMatrix in="SourceAlpha" type="matrix" values="0 0 0 0 0 0 0 0 0 0 0 0 0 0 0 0 0 0 127 0" result="hardAlpha"/>
<feOffset dy="4"/>
<feGaussianBlur stdDeviation="2"/>
<feComposite in2="hardAlpha" operator="out"/>
<feColorMatrix type="matrix" values="0 0 0 0 0 0 0 0 0 0 0 0 0 0 0 0 0 0 0.25 0"/>
<feBlend mode="normal" in2="BackgroundImageFix" result="effect1_dropShadow_3_23"/>
<feBlend mode="normal" in="SourceGraphic" in2="effect1_dropShadow_3_23" result="shape"/>
</filter>
<clipPath id="clip0_3_23">
<rect width="14.8246" height="24" fill="white" transform="translate(0.132935)"/>
</clipPath>
</defs>
</svg>
