<svg width="44" height="44" viewBox="0 0 44 44" fill="none" xmlns="http://www.w3.org/2000/svg">
<path d="M34.8334 7.33332H31.1667V5.49999C31.1667 5.01376 30.9735 4.54744 30.6297 4.20363C30.2859 3.85981 29.8196 3.66666 29.3334 3.66666C28.8471 3.66666 28.3808 3.85981 28.037 4.20363C27.6932 4.54744 27.5 5.01376 27.5 5.49999V7.33332H16.5V5.49999C16.5 5.01376 16.3069 4.54744 15.963 4.20363C15.6192 3.85981 15.1529 3.66666 14.6667 3.66666C14.1805 3.66666 13.7141 3.85981 13.3703 4.20363C13.0265 4.54744 12.8334 5.01376 12.8334 5.49999V7.33332H9.16669C7.708 7.33332 6.30905 7.91279 5.2776 8.94424C4.24615 9.97569 3.66669 11.3746 3.66669 12.8333V34.8333C3.66669 36.292 4.24615 37.691 5.2776 38.7224C6.30905 39.7539 7.708 40.3333 9.16669 40.3333H34.8334C36.292 40.3333 37.691 39.7539 38.7224 38.7224C39.7539 37.691 40.3334 36.292 40.3334 34.8333V12.8333C40.3334 11.3746 39.7539 9.97569 38.7224 8.94424C37.691 7.91279 36.292 7.33332 34.8334 7.33332ZM36.6667 34.8333C36.6667 35.3196 36.4735 35.7859 36.1297 36.1297C35.7859 36.4735 35.3196 36.6667 34.8334 36.6667H9.16669C8.68046 36.6667 8.21414 36.4735 7.87033 36.1297C7.52651 35.7859 7.33335 35.3196 7.33335 34.8333V22H36.6667V34.8333ZM36.6667 18.3333H7.33335V12.8333C7.33335 12.3471 7.52651 11.8808 7.87033 11.537C8.21414 11.1931 8.68046 11 9.16669 11H12.8334V12.8333C12.8334 13.3196 13.0265 13.7859 13.3703 14.1297C13.7141 14.4735 14.1805 14.6667 14.6667 14.6667C15.1529 14.6667 15.6192 14.4735 15.963 14.1297C16.3069 13.7859 16.5 13.3196 16.5 12.8333V11H27.5V12.8333C27.5 13.3196 27.6932 13.7859 28.037 14.1297C28.3808 14.4735 28.8471 14.6667 29.3334 14.6667C29.8196 14.6667 30.2859 14.4735 30.6297 14.1297C30.9735 13.7859 31.1667 13.3196 31.1667 12.8333V11H34.8334C35.3196 11 35.7859 11.1931 36.1297 11.537C36.4735 11.8808 36.6667 12.3471 36.6667 12.8333V18.3333Z" fill="black"/>
</svg>
