<svg width="17" height="20" viewBox="0 0 17 20" fill="none" xmlns="http://www.w3.org/2000/svg">
<path d="M14.001 2H12.3539V1C12.3539 0.734784 12.2671 0.48043 12.1126 0.292893C11.9582 0.105357 11.7487 0 11.5303 0C11.3118 0 11.1024 0.105357 10.9479 0.292893C10.7934 0.48043 10.7067 0.734784 10.7067 1V2H5.76513V1C5.76513 0.734784 5.67836 0.48043 5.52391 0.292893C5.36945 0.105357 5.15997 0 4.94154 0C4.72311 0 4.51363 0.105357 4.35918 0.292893C4.20472 0.48043 4.11795 0.734784 4.11795 1V2H2.47077C1.81548 2 1.18703 2.31607 0.723672 2.87868C0.260313 3.44129 0 4.20435 0 5V17C0 17.7956 0.260313 18.5587 0.723672 19.1213C1.18703 19.6839 1.81548 20 2.47077 20H14.001C14.6563 20 15.2848 19.6839 15.7481 19.1213C16.2115 18.5587 16.4718 17.7956 16.4718 17V5C16.4718 4.20435 16.2115 3.44129 15.7481 2.87868C15.2848 2.31607 14.6563 2 14.001 2ZM14.8246 17C14.8246 17.2652 14.7379 17.5196 14.5834 17.7071C14.4289 17.8946 14.2195 18 14.001 18H2.47077C2.25234 18 2.04286 17.8946 1.8884 17.7071C1.73395 17.5196 1.64718 17.2652 1.64718 17V10H14.8246V17ZM14.8246 8H1.64718V5C1.64718 4.73478 1.73395 4.48043 1.8884 4.29289C2.04286 4.10536 2.25234 4 2.47077 4H4.11795V5C4.11795 5.26522 4.20472 5.51957 4.35918 5.70711C4.51363 5.89464 4.72311 6 4.94154 6C5.15997 6 5.36945 5.89464 5.52391 5.70711C5.67836 5.51957 5.76513 5.26522 5.76513 5V4H10.7067V5C10.7067 5.26522 10.7934 5.51957 10.9479 5.70711C11.1024 5.89464 11.3118 6 11.5303 6C11.7487 6 11.9582 5.89464 12.1126 5.70711C12.2671 5.51957 12.3539 5.26522 12.3539 5V4H14.001C14.2195 4 14.4289 4.10536 14.5834 4.29289C14.7379 4.48043 14.8246 4.73478 14.8246 5V8Z" fill="black"/>
</svg>
